<svg xmlns="http://www.w3.org/2000/svg" viewBox="0 0 897 304.23"><defs><style>.cls-1,.cls-2{fill:#088845;}.cls-2{fill-rule:evenodd;}.cls-3{fill:none;stroke:#088845;stroke-linecap:round;stroke-linejoin:round;}</style></defs><g id="LOGO_IDEAS" data-name="LOGO IDEAS"><path class="cls-1" d="M298.33,180.2a10.34,10.34,0,0,1-6.07-1.81,13.22,13.22,0,0,1-4.25-5.58l-22.16-51.43a11.15,11.15,0,0,1-.9-5.71,6,6,0,0,1,2.51-4.25,9.72,9.72,0,0,1,5.92-1.6,8.38,8.38,0,0,1,5.16,1.46c1.3,1,2.46,2.81,3.48,5.5l18.82,47h-4.18L316,116.64q1.53-3.9,3.55-5.36a9.19,9.19,0,0,1,5.51-1.46,7.1,7.1,0,0,1,4.88,1.6,6.9,6.9,0,0,1,2.23,4.18,9.86,9.86,0,0,1-1,5.64l-22.58,51.57a12.19,12.19,0,0,1-4.11,5.58A10.57,10.57,0,0,1,298.33,180.2Z"/><path class="cls-1" d="M376.38,180.47q-11.58,0-19.94-4.32a30.64,30.64,0,0,1-12.89-12.26Q339,156,339,145.08a37.81,37.81,0,0,1,4.39-18.54,32.24,32.24,0,0,1,12.13-12.47,36.75,36.75,0,0,1,30.66-2.16,27.38,27.38,0,0,1,9.9,6.83,29.9,29.9,0,0,1,6.27,10.8,44.16,44.16,0,0,1,2.16,14.28,4.52,4.52,0,0,1-1.74,3.83,8,8,0,0,1-5,1.33H353.1v-10h39.16L390,141a26.82,26.82,0,0,0-1.88-10.73,14.56,14.56,0,0,0-5.43-6.62,16,16,0,0,0-8.86-2.3,17.67,17.67,0,0,0-10,2.72,17.16,17.16,0,0,0-6.27,7.66,29.36,29.36,0,0,0-2.16,11.78v1q0,11.43,5.37,17.07t15.81,5.65a42.36,42.36,0,0,0,8.16-.91,29.94,29.94,0,0,0,8.57-3.14,9,9,0,0,1,5.15-1.46,5.45,5.45,0,0,1,3.56,1.6,6.07,6.07,0,0,1,1.6,3.42,6.89,6.89,0,0,1-.77,4.11,9.08,9.08,0,0,1-3.55,3.62A35.89,35.89,0,0,1,388.15,179,52.3,52.3,0,0,1,376.38,180.47Z"/><path class="cls-1" d="M427.24,180.2a8,8,0,0,1-8.92-8.92V118.59c0-2.87.75-5.06,2.24-6.55a10,10,0,0,1,12.54,0c1.48,1.49,2.23,3.68,2.23,6.55v8.79h-1.4q2-8.37,7.67-12.69t15.19-5.15a5.51,5.51,0,0,1,4.67,1.46,8.28,8.28,0,0,1,2,5.37,7.33,7.33,0,0,1-1.6,5.64,8.42,8.42,0,0,1-5.65,2.58l-3.06.28q-8.51.82-12.82,5.22c-2.89,2.93-4.32,7-4.32,12.34v28.85c0,2.88-.75,5.08-2.24,6.62S430.12,180.2,427.24,180.2Z"/><path class="cls-1" d="M494.7,180.47a29.41,29.41,0,0,1-13.17-2.85,22.73,22.73,0,0,1-9.06-7.74,19.31,19.31,0,0,1-3.27-11c0-5,1.3-9,3.9-11.91s6.83-5,12.68-6.35,13.71-2,23.56-2h7v10h-6.82a91.09,91.09,0,0,0-13.8.83c-3.44.56-5.88,1.52-7.32,2.86A7.36,7.36,0,0,0,486.2,158a9.72,9.72,0,0,0,3.21,7.52c2.13,2,5.1,2.93,8.92,2.93a15.39,15.39,0,0,0,8.15-2.16,15.66,15.66,0,0,0,5.64-5.92,17.43,17.43,0,0,0,2.09-8.64v-16q0-7-3.06-10c-2-2-5.48-3.06-10.32-3.06a42.82,42.82,0,0,0-8.71,1A46.25,46.25,0,0,0,482.3,127a6.77,6.77,0,0,1-4.67.7,5.29,5.29,0,0,1-3.14-2.3,7,7,0,0,1-1.11-3.84,8.46,8.46,0,0,1,1.11-4.11,6.72,6.72,0,0,1,3.76-3,63.85,63.85,0,0,1,12.34-3.76,59.08,59.08,0,0,1,10.8-1.11q10,0,16.52,3.06a20.41,20.41,0,0,1,9.68,9.27q3.21,6.21,3.21,16v33.45c0,2.88-.7,5.08-2.09,6.62a7.71,7.71,0,0,1-6,2.3,7.92,7.92,0,0,1-6.06-2.3c-1.44-1.54-2.16-3.74-2.16-6.62v-6.69h1.12a18.84,18.84,0,0,1-11,13.93A23.83,23.83,0,0,1,494.7,180.47Z"/><path class="cls-1" d="M557.42,180.2a8.52,8.52,0,0,1-6.41-2.3c-1.49-1.54-2.23-3.74-2.23-6.62V118.59c0-2.87.74-5.06,2.23-6.55a10,10,0,0,1,12.54,0c1.48,1.49,2.23,3.68,2.23,6.55v10.18l-1.53-4.18a23.24,23.24,0,0,1,22.58-15q8.22,0,13.51,3.9t7.39,12h-2a23.54,23.54,0,0,1,9.2-11.63,26.06,26.06,0,0,1,14.77-4.25q7.8,0,12.89,3.06a18.61,18.61,0,0,1,7.6,9.27q2.5,6.21,2.51,15.68v33.73a9,9,0,0,1-2.3,6.62,8.8,8.8,0,0,1-6.48,2.3,8.52,8.52,0,0,1-6.41-2.3c-1.49-1.54-2.23-3.74-2.23-6.62v-33q0-7.8-2.58-11.43T624,123.19A13.1,13.1,0,0,0,613.3,128q-3.9,4.81-3.9,13.31v30c0,2.88-.74,5.08-2.23,6.62a8.53,8.53,0,0,1-6.41,2.3,8.78,8.78,0,0,1-6.48-2.3,9,9,0,0,1-2.3-6.62v-33q0-7.8-2.58-11.43t-8.57-3.63A13.08,13.08,0,0,0,570.1,128q-3.9,4.81-3.9,13.31v30Q566.2,180.21,557.42,180.2Z"/><path class="cls-1" d="M693.16,180.47A29.44,29.44,0,0,1,680,177.62a22.7,22.7,0,0,1-9-7.74,19.25,19.25,0,0,1-3.28-11c0-5,1.3-9,3.9-11.91s6.83-5,12.68-6.35,13.71-2,23.56-2h7v10h-6.83a91.18,91.18,0,0,0-13.8.83c-3.44.56-5.88,1.52-7.32,2.86a7.36,7.36,0,0,0-2.16,5.65,9.72,9.72,0,0,0,3.21,7.52c2.13,2,5.11,2.93,8.92,2.93a15.39,15.39,0,0,0,8.15-2.16,15.66,15.66,0,0,0,5.64-5.92,17.44,17.44,0,0,0,2.1-8.64v-16q0-7-3.07-10t-10.31-3.06a42.67,42.67,0,0,0-8.71,1,46.32,46.32,0,0,0-9.83,3.35,6.77,6.77,0,0,1-4.67.7,5.32,5.32,0,0,1-3.14-2.3,7,7,0,0,1-1.11-3.84,8.46,8.46,0,0,1,1.11-4.11,6.74,6.74,0,0,1,3.77-3,63.55,63.55,0,0,1,12.33-3.76,59.08,59.08,0,0,1,10.8-1.11q10,0,16.52,3.06a20.41,20.41,0,0,1,9.68,9.27q3.21,6.21,3.21,16v33.45c0,2.88-.7,5.08-2.09,6.62a7.69,7.69,0,0,1-6,2.3,7.94,7.94,0,0,1-6.07-2.3c-1.44-1.54-2.16-3.74-2.16-6.62v-6.69h1.12a18.84,18.84,0,0,1-11,13.93A23.83,23.83,0,0,1,693.16,180.47Z"/><path class="cls-1" d="M755.88,180.2q-4.32,0-6.62-2.3a9,9,0,0,1-2.3-6.62V118.59c0-2.87.74-5.06,2.23-6.55a10,10,0,0,1,12.54,0c1.49,1.49,2.23,3.68,2.23,6.55v8.79h-1.39q1.95-8.37,7.66-12.69t15.2-5.15A5.52,5.52,0,0,1,790.1,111a8.28,8.28,0,0,1,2,5.37,7.33,7.33,0,0,1-1.61,5.64,8.37,8.37,0,0,1-5.64,2.58l-3.07.28q-8.5.82-12.82,5.22t-4.32,12.34v28.85c0,2.88-.74,5.08-2.23,6.62S758.76,180.2,755.88,180.2Z"/><path class="cls-1" d="M562.88,233a9.69,9.69,0,0,1-5.07-1.28,8.51,8.51,0,0,1-3.27-3.6,12,12,0,0,1-1.14-5.37,12.59,12.59,0,0,1,.64-4.17,8.57,8.57,0,0,1,1.89-3.16,8.22,8.22,0,0,1,3-2,11.25,11.25,0,0,1,7-.24,7.43,7.43,0,0,1,2.86,1.53,1.27,1.27,0,0,1,.52.68,1.3,1.3,0,0,1,0,.78,1.55,1.55,0,0,1-.4.65,1.2,1.2,0,0,1-1.57,0,6.68,6.68,0,0,0-2.13-1.13,7.54,7.54,0,0,0-2.09-.32,6.93,6.93,0,0,0-2.73.5,5.36,5.36,0,0,0-2,1.43,6.13,6.13,0,0,0-1.23,2.29,10.82,10.82,0,0,0-.42,3.17,8.52,8.52,0,0,0,1.65,5.53,5.7,5.7,0,0,0,4.7,2,7.29,7.29,0,0,0,2.07-.32,7.09,7.09,0,0,0,2.15-1.13,1.14,1.14,0,0,1,1.53,0,1.44,1.44,0,0,1,.38.67,1.48,1.48,0,0,1,0,.78,1.31,1.31,0,0,1-.52.66,8.21,8.21,0,0,1-2.82,1.51A10.18,10.18,0,0,1,562.88,233Z"/><path class="cls-1" d="M580.92,233a9.46,9.46,0,0,1-4.94-1.24,8.49,8.49,0,0,1-3.24-3.52,11.81,11.81,0,0,1-1.14-5.37,12.76,12.76,0,0,1,.64-4.19,8.74,8.74,0,0,1,1.89-3.2,8.38,8.38,0,0,1,3-2,10,10,0,0,1,3.84-.7,9.5,9.5,0,0,1,5,1.24,8.41,8.41,0,0,1,3.23,3.52,11.67,11.67,0,0,1,1.15,5.36,12.6,12.6,0,0,1-.65,4.18,8.83,8.83,0,0,1-1.88,3.2,8.25,8.25,0,0,1-3,2.05A10,10,0,0,1,580.92,233Zm0-2.61a5.48,5.48,0,0,0,5.29-3.46,10.12,10.12,0,0,0,.74-4.06,8.42,8.42,0,0,0-1.63-5.58,5.44,5.44,0,0,0-4.4-1.93,5.83,5.83,0,0,0-3.19.86,5.58,5.58,0,0,0-2.09,2.54,10,10,0,0,0-.75,4.11,8.4,8.4,0,0,0,1.65,5.57A5.45,5.45,0,0,0,580.92,230.36Z"/><path class="cls-1" d="M596.76,232.89a1.57,1.57,0,0,1-1.21-.44,1.77,1.77,0,0,1-.4-1.25V214.45a1.7,1.7,0,0,1,.4-1.23,1.55,1.55,0,0,1,1.17-.42,1.59,1.59,0,0,1,1.18.42,1.67,1.67,0,0,1,.42,1.23v3.45l-.44-.48a6.68,6.68,0,0,1,2.76-3.52,8.16,8.16,0,0,1,4.4-1.18,8,8,0,0,1,3.87.84,5.25,5.25,0,0,1,2.32,2.55,10.79,10.79,0,0,1,.76,4.32V231.2a1.73,1.73,0,0,1-.42,1.25,1.58,1.58,0,0,1-1.19.44,1.61,1.61,0,0,1-1.22-.44,1.7,1.7,0,0,1-.43-1.25V220.63a6.12,6.12,0,0,0-1.06-4,4.18,4.18,0,0,0-3.4-1.27A5.61,5.61,0,0,0,600,217a6.2,6.2,0,0,0-1.58,4.44v9.72A1.48,1.48,0,0,1,596.76,232.89Z"/><path class="cls-1" d="M625.81,233a8.07,8.07,0,0,1-3.83-.82,5.24,5.24,0,0,1-2.31-2.41,8.88,8.88,0,0,1-.77-3.88V215.61h-2.69a1.46,1.46,0,0,1-1.05-.34,1.24,1.24,0,0,1-.36-1,1.18,1.18,0,0,1,.36-.92,1.55,1.55,0,0,1,1.05-.32h2.69v-4.62a1.63,1.63,0,0,1,.44-1.23,1.7,1.7,0,0,1,1.21-.42,1.63,1.63,0,0,1,1.19.42,1.67,1.67,0,0,1,.42,1.23v4.62h5.06a1.55,1.55,0,0,1,1,.32,1.18,1.18,0,0,1,.36.92,1.24,1.24,0,0,1-.36,1,1.46,1.46,0,0,1-1,.34h-5.06v9.93a5.41,5.41,0,0,0,1,3.47,3.82,3.82,0,0,0,3.14,1.19,4.48,4.48,0,0,0,1.3-.16,3.28,3.28,0,0,1,.91-.16.64.64,0,0,1,.6.24,1.5,1.5,0,0,1,.24,1,2.18,2.18,0,0,1-.18.89,1.07,1.07,0,0,1-.62.56,10.21,10.21,0,0,1-2.7.44Z"/><path class="cls-1" d="M638.19,233a8.07,8.07,0,0,1-3.6-.78,6.43,6.43,0,0,1-2.51-2.15,5.38,5.38,0,0,1-.92-3.06,5,5,0,0,1,1.1-3.41,6.55,6.55,0,0,1,3.66-1.77,36.36,36.36,0,0,1,7-.52h1.81v2.13h-1.77a34,34,0,0,0-5.12.3,4.85,4.85,0,0,0-2.61,1,2.73,2.73,0,0,0-.75,2.05,3.51,3.51,0,0,0,1.15,2.7,4.46,4.46,0,0,0,3.11,1,5.25,5.25,0,0,0,2.84-.76,5.48,5.48,0,0,0,1.93-2.09,6.42,6.42,0,0,0,.7-3.06V220a5.34,5.34,0,0,0-1-3.6,4.32,4.32,0,0,0-3.3-1.1,11.22,11.22,0,0,0-2.81.36,14.81,14.81,0,0,0-3,1.16,1.44,1.44,0,0,1-1,.19,1.07,1.07,0,0,1-.64-.43,1.38,1.38,0,0,1-.29-.74,1.51,1.51,0,0,1,.18-.82,1.61,1.61,0,0,1,.71-.65,16.45,16.45,0,0,1,3.49-1.28,14.49,14.49,0,0,1,3.3-.4,9.32,9.32,0,0,1,4.18.82,5.28,5.28,0,0,1,2.45,2.49,10,10,0,0,1,.81,4.28V231.2a1.82,1.82,0,0,1-.39,1.25,1.38,1.38,0,0,1-1.1.44,1.52,1.52,0,0,1-1.17-.44,1.77,1.77,0,0,1-.4-1.25v-3.13h.36a5.85,5.85,0,0,1-1.22,2.61,6.32,6.32,0,0,1-2.23,1.69A7.18,7.18,0,0,1,638.19,233Z"/><path class="cls-1" d="M663.23,233a7.56,7.56,0,0,1-4.56-1.37,6.4,6.4,0,0,1-2.55-3.65l.44-.44v3.69a1.7,1.7,0,0,1-.43,1.25,1.84,1.84,0,0,1-2.39,0,1.82,1.82,0,0,1-.4-1.25V205.64a1.74,1.74,0,0,1,.4-1.22A1.6,1.6,0,0,1,655,204a1.7,1.7,0,0,1,1.21.42,1.63,1.63,0,0,1,.44,1.22v12h-.48a6.58,6.58,0,0,1,2.57-3.58,7.72,7.72,0,0,1,4.54-1.32,8.42,8.42,0,0,1,4.58,1.22,8,8,0,0,1,3,3.5,14.09,14.09,0,0,1,0,10.77,8.19,8.19,0,0,1-3,3.52A8.29,8.29,0,0,1,663.23,233Zm-.68-2.61a5.68,5.68,0,0,0,3.19-.88,5.76,5.76,0,0,0,2.09-2.58,10,10,0,0,0,.74-4.06,8.48,8.48,0,0,0-1.62-5.58,5.46,5.46,0,0,0-4.4-1.93,5.87,5.87,0,0,0-3.18.86,5.62,5.62,0,0,0-2.11,2.54,10,10,0,0,0-.74,4.11,8.34,8.34,0,0,0,1.65,5.57A5.42,5.42,0,0,0,662.55,230.36Z"/><path class="cls-1" d="M678.38,208.38a2.15,2.15,0,0,1-1.57-.55,2,2,0,0,1-.56-1.46,1.87,1.87,0,0,1,.56-1.47,2.75,2.75,0,0,1,3.16,0,1.9,1.9,0,0,1,.54,1.47,2,2,0,0,1-.54,1.46A2.15,2.15,0,0,1,678.38,208.38Zm0,24.43a1.51,1.51,0,0,1-1.21-.46,2,2,0,0,1-.4-1.31V214.6a1.89,1.89,0,0,1,.4-1.28,1.57,1.57,0,0,1,1.21-.44,1.66,1.66,0,0,1,1.21.44,1.76,1.76,0,0,1,.44,1.28V231a1.85,1.85,0,0,1-.43,1.31A1.55,1.55,0,0,1,678.38,232.81Z"/><path class="cls-1" d="M692,233a5.53,5.53,0,0,1-4.42-1.77,7.55,7.55,0,0,1-1.52-5.06v-20.5a1.69,1.69,0,0,1,.4-1.22,1.59,1.59,0,0,1,1.2-.42,1.68,1.68,0,0,1,1.21.42,1.63,1.63,0,0,1,.44,1.22V225.9a5.09,5.09,0,0,0,.87,3.24,3.1,3.1,0,0,0,2.55,1.06,5.92,5.92,0,0,0,.64,0,3.6,3.6,0,0,1,.56,0,.65.65,0,0,1,.63.2,1.74,1.74,0,0,1,.18,1,1.61,1.61,0,0,1-.32,1.09,1.78,1.78,0,0,1-1.05.48l-.68.08A5.53,5.53,0,0,1,692,233Z"/><path class="cls-1" d="M699.6,208.38a2.15,2.15,0,0,1-1.57-.55,2,2,0,0,1-.56-1.46,1.87,1.87,0,0,1,.56-1.47,2.31,2.31,0,0,1,1.57-.5,2.28,2.28,0,0,1,1.59.5,1.9,1.9,0,0,1,.54,1.47,2,2,0,0,1-.54,1.46A2.12,2.12,0,0,1,699.6,208.38Zm0,24.43a1.51,1.51,0,0,1-1.21-.46A2,2,0,0,1,698,231V214.6a1.89,1.89,0,0,1,.4-1.28,1.57,1.57,0,0,1,1.21-.44,1.66,1.66,0,0,1,1.21.44,1.76,1.76,0,0,1,.44,1.28V231a1.89,1.89,0,0,1-.42,1.31A1.58,1.58,0,0,1,699.6,232.81Z"/><path class="cls-1" d="M714.75,233a8,8,0,0,1-7.58-4.76,14.21,14.21,0,0,1,0-10.77,8,8,0,0,1,3-3.5,8.45,8.45,0,0,1,4.56-1.22,7.72,7.72,0,0,1,4.54,1.32,6.41,6.41,0,0,1,2.53,3.58h-.44v-12A1.47,1.47,0,0,1,723,204a1.59,1.59,0,0,1,1.18.42,1.62,1.62,0,0,1,.43,1.22V231.2a1.78,1.78,0,0,1-.41,1.25,1.55,1.55,0,0,1-1.2.44,1.58,1.58,0,0,1-1.19-.44,1.73,1.73,0,0,1-.42-1.25v-3.81l.44.56a6.49,6.49,0,0,1-2.55,3.65A7.56,7.56,0,0,1,714.75,233Zm.68-2.61a5.48,5.48,0,0,0,5.29-3.46,10.12,10.12,0,0,0,.74-4.06,8.42,8.42,0,0,0-1.63-5.58,5.44,5.44,0,0,0-4.4-1.93,5.83,5.83,0,0,0-3.19.86,5.58,5.58,0,0,0-2.09,2.54,10,10,0,0,0-.75,4.11,8.4,8.4,0,0,0,1.65,5.57A5.45,5.45,0,0,0,715.43,230.36Z"/><path class="cls-1" d="M736.89,233a8,8,0,0,1-3.59-.78,6.39,6.39,0,0,1-2.52-2.15,5.38,5.38,0,0,1-.92-3.06,5,5,0,0,1,1.1-3.41,6.55,6.55,0,0,1,3.66-1.77,36.41,36.41,0,0,1,7-.52h1.8v2.13h-1.76a34.09,34.09,0,0,0-5.13.3,4.85,4.85,0,0,0-2.61,1,2.73,2.73,0,0,0-.74,2.05,3.51,3.51,0,0,0,1.14,2.7,4.46,4.46,0,0,0,3.11,1,5.25,5.25,0,0,0,2.84-.76,5.4,5.4,0,0,0,1.93-2.09,6.42,6.42,0,0,0,.7-3.06V220a5.34,5.34,0,0,0-1-3.6,4.3,4.3,0,0,0-3.3-1.1,11.28,11.28,0,0,0-2.81.36,14.81,14.81,0,0,0-3,1.16,1.44,1.44,0,0,1-1,.19,1.1,1.1,0,0,1-.64-.43,1.29,1.29,0,0,1-.28-.74,1.35,1.35,0,0,1,.18-.82,1.53,1.53,0,0,1,.7-.65,16.33,16.33,0,0,1,3.5-1.28,14.41,14.41,0,0,1,3.29-.4,9.32,9.32,0,0,1,4.18.82,5.24,5.24,0,0,1,2.45,2.49,9.81,9.81,0,0,1,.81,4.28V231.2a1.82,1.82,0,0,1-.39,1.25,1.38,1.38,0,0,1-1.1.44,1.52,1.52,0,0,1-1.17-.44,1.82,1.82,0,0,1-.4-1.25v-3.13h.36a5.85,5.85,0,0,1-1.22,2.61,6.23,6.23,0,0,1-2.23,1.69A7.18,7.18,0,0,1,736.89,233Z"/><path class="cls-1" d="M759.48,233a8,8,0,0,1-7.58-4.76,14.21,14.21,0,0,1,0-10.77,8,8,0,0,1,3-3.5,8.42,8.42,0,0,1,4.56-1.22A7.72,7.72,0,0,1,764,214a6.41,6.41,0,0,1,2.53,3.58h-.44v-12a1.47,1.47,0,0,1,1.65-1.64,1.59,1.59,0,0,1,1.18.42,1.62,1.62,0,0,1,.43,1.22V231.2a1.78,1.78,0,0,1-.41,1.25,1.55,1.55,0,0,1-1.2.44,1.58,1.58,0,0,1-1.19-.44,1.73,1.73,0,0,1-.42-1.25v-3.81l.44.56A6.49,6.49,0,0,1,764,231.6,7.56,7.56,0,0,1,759.48,233Zm.68-2.61a5.48,5.48,0,0,0,5.29-3.46,10.12,10.12,0,0,0,.74-4.06,8.42,8.42,0,0,0-1.63-5.58,5.44,5.44,0,0,0-4.4-1.93,5.81,5.81,0,0,0-3.19.86,5.58,5.58,0,0,0-2.09,2.54,10,10,0,0,0-.75,4.11,8.4,8.4,0,0,0,1.65,5.57A5.45,5.45,0,0,0,760.16,230.36Z"/><path class="cls-1" d="M784.27,233a10.86,10.86,0,0,1-5.32-1.23,8.5,8.5,0,0,1-3.46-3.47,12.45,12.45,0,0,1,0-10.71,9.48,9.48,0,0,1,11.74-4.18,7.31,7.31,0,0,1,2.67,1.91,8.5,8.5,0,0,1,1.69,3,12.66,12.66,0,0,1,.58,4,1.17,1.17,0,0,1-.36.95,1.59,1.59,0,0,1-1,.3h-14V221.4H790l-.64.52a9.55,9.55,0,0,0-.64-3.68,5.14,5.14,0,0,0-1.87-2.31,5.57,5.57,0,0,0-3.08-.8,6.2,6.2,0,0,0-3.48.94,5.85,5.85,0,0,0-2.14,2.62,9.51,9.51,0,0,0-.73,3.87v.24a8,8,0,0,0,1.79,5.63,6.57,6.57,0,0,0,5.08,1.93A10.48,10.48,0,0,0,787,230a9.26,9.26,0,0,0,2.63-1.21,1.79,1.79,0,0,1,1-.34,1.15,1.15,0,0,1,.75.28,1.34,1.34,0,0,1,.38.65,1.26,1.26,0,0,1-.08.82,1.68,1.68,0,0,1-.7.76,10.15,10.15,0,0,1-3.14,1.49A12.76,12.76,0,0,1,784.27,233Z"/><polygon class="cls-2" points="171.09 199.73 173.79 232.97 176.75 232.97 176.75 199.73 171.09 199.73 171.09 199.73"/><polygon class="cls-1" points="171.34 204.84 176.88 204.84 176.88 206.51 171.34 206.51 171.34 204.84 171.34 204.84"/><polygon class="cls-1" points="171.54 207.98 176.88 207.98 176.88 209.5 171.54 209.5 171.54 207.98 171.54 207.98"/><polygon class="cls-1" points="171.84 211.69 176.88 211.69 176.88 213.05 171.84 213.05 171.84 211.69 171.84 211.69"/><polygon class="cls-1" points="172.66 223.46 176.84 223.46 176.84 224.82 172.66 224.82 172.66 223.46 172.66 223.46"/><polygon class="cls-1" points="173.03 227.27 176.83 227.27 176.83 228.16 173.03 228.16 173.03 227.27 173.03 227.27"/><polygon class="cls-1" points="170.64 199.73 173.43 232.97 177.39 232.97 180.08 199.73 170.64 199.73 170.64 199.73"/><path class="cls-2" d="M196.27,120c-.83-1.45-1.86-3.09-2.69-4.53-.58,1.15-1,2.5-1.55,3.66a5,5,0,0,0,4.24.87Z"/><path class="cls-2" d="M155.67,120c.83-1.45,1.86-3.09,2.7-4.53.58,1.15,1,2.5,1.54,3.66a5,5,0,0,1-4.24.87Z"/><path class="cls-2" d="M184.41,221.81l-12.78-3A21,21,0,0,0,159.79,227c-1.7,2.45-.07,4.2,2.61,2.21,3.74-2.79,6.36-6.63,10.53-6.9,3.83-.24,7.69,0,11.48-.53Z"/><line class="cls-1" x1="169.28" y1="223.49" x2="167.71" y2="222.75"/><path class="cls-1" d="M168,220.2l2.82,1.13m-7.63,2,2.07.48"/><path class="cls-2" d="M182.32,221.81c9.82-2.92,17.48-8.17,13.88-17.08-3.11-7.68-10.66-8.89-18.88-9.51-15.18-1.14-19.86-6.79-18.64-12.33.79-3.63,4-5.87,7.77-6.79a134.29,134.29,0,0,1,15.62-2.44l-18-7.12a31.89,31.89,0,0,0-6.68,2.3c-5.26,3.72-9.11,7.87-9.15,12.95-.11,11.74,8.62,16.34,16.4,19.36,6.55,2.55,13.43,2.64,20.24,4.11,7.05,1.51,6.83,7.43-1,10.81-2.83,1.23-5.68,2.41-8.52,3.61,2.51.93,4.45,1.21,7,2.13Z"/><path class="cls-1" d="M168.82,175.59l-3.64-2.88m-4.92,1.76,4.59,2.1m-7.55.85,4.3.65M154.31,181l4.42-.14m-4.48,5.37,4-2.24"/><line class="cls-1" x1="156.74" y1="191.33" x2="159.23" y2="188.44"/><path class="cls-1" d="M161.42,195.13l.11-4.27M155,174.65l-4,.5m1,3.8-3.48,1.25m3.56,3.47L150,189.38m3.41-.39.15,5.32m3.55-.4,2,4.27"/><path class="cls-1" d="M165.91,196.58l1.28,5.13m4.4-3.09,2.85,4.77m3.27-3.46,2.07,4.42m2.9-2.92.71,3.49m3.46-2.83-.64,3.64m4.28-1-1.42,2.42m-23-14-1.5,1.57m5.14-.49-1.14,1m4.16-.48-.22,2.21"/><line class="cls-1" x1="177.79" y1="195.44" x2="177.36" y2="197.6"/><line class="cls-1" x1="181.76" y1="195.77" x2="181.63" y2="198.1"/><path class="cls-1" d="M185.19,198.17l2.07-1.35m2.06,3.56,3.21-.71m.85,4.48,2.71.65m-6,4.49,2.51-.93m-3.87,4.55,2.65-.11m-6.27,2.66,2.53.78"/><line class="cls-1" x1="187.47" y1="218.27" x2="188.77" y2="219.22"/><path class="cls-1" d="M191.76,214.89l-.07,2.76m2.8-7.58,2.5,0"/><path class="cls-2" d="M157.36,168.84c9.06-4,19.5-3.62,30.54-5.56,14.25-2.51,22.24-9.4,25.62-16.6,3-6.34,1.77-11.39-2.66-16.27-5-5.49-9.83-3.68-13.48-7.82,3.17.56,6.58,1.42,9.74,1.85a20.7,20.7,0,0,0-7.87-4.47c-1.53-.51-2.32-3.33,1.27-2.82a48.65,48.65,0,0,0,7.31.51c2.9,0,5,2,6.57,4.77,2.37,4.29,5.06,8,6.72,12.65,2.54,7.08.85,15-4.6,21.78-4.67,5.8-10.47,9.61-17,12.52-5.47,2.45-11,3.44-16.62,4.17l-25.57-4.71Z"/><path class="cls-1" d="M197.66,120.88l7.24,2.47m17.12,15L219.18,143m2.84,1.8-4.26,4.26m-3.29,6,5.38-3.06m-10.52,8.22,5.59-1.52m-12.81,5.64,6.22.19m-12.92,2.35,5.94,1.42m-12,.38,4.86,2.57m23.57-30.65-2.65,1.15m1.79,4.62-3.51.5m.38,5.24-3.78-.1m-.95,5-4-.48M203.83,161l-4.08-1.21m-2.25,4.34-3.89-2m-2.92,3.79-2.85-2.51m-4.91,4.12-.15-3.42"/><path class="cls-2" d="M191.47,198.79c6.33-3,12.79-7,12.59-16.92-.09-5.08-3.81-10-9.47-13-8.73-4.73-19.51-3.62-30.54-5.56-14.26-2.51-22.25-9.4-25.62-16.6-3-6.34-1.78-11.39,2.65-16.27,5-5.49,9.83-3.68,13.48-7.82-3.17.56-6.57,1.42-9.74,1.85A20.74,20.74,0,0,1,152.7,120c1.53-.51,2.32-3.33-1.28-2.82a48.65,48.65,0,0,1-7.31.51c-2.89,0-5,2-6.56,4.77-2.38,4.29-5.07,8-6.72,12.65-2.55,7.08-.85,15,4.59,21.78,4.67,5.79,10.47,9.61,17,12.52,10.82,4.84,22,4,33.11,6.72,3.74.92,7.95,3.16,8.75,6.79,1,4.37-4.19,9.43-13.07,12.7,3.88.47,7.46,1.3,10.29,3.2Z"/><path class="cls-1" d="M154.28,120.88,147,123.35m-17.12,15,2.84,4.64m-2.84,1.8,4.26,4.26m3.29,6L132.09,152m10.52,8.22L137,158.74m12.82,5.64-6.23.19m12.92,2.35-5.94,1.42m12,.38-4.87,2.57M169.17,170l-3.11,3.11m9.14-3-4.34,3.58m10.28-3-4,3.77m6,1.12,3.65-2.88m4.91,1.76-4.59,2.1m7.55.85-4.29.65m7.28,2.88-4.42-.14m5.19,5.65-4-2.24"/><line class="cls-1" x1="195.2" y1="191.33" x2="192.72" y2="188.44"/><path class="cls-1" d="M190.53,195.13l-.11-4.27m-56.29-50.22,2.65,1.15M135,146.41l3.51.5m-.38,5.24,3.78-.1m1,5,4-.48m1.28,4.33,4.08-1.21m2.25,4.34,3.9-2m2.91,3.79,2.85-2.51m4.91,4.12.15-3.42m5.22,3.47-.57-2.89m5.93,3.43-.47-2.67m5.12,2.45-.35-1.75M187.5,169l3.89-1.14m1.14,3.58,3.89-1m.56,4.21,4,.5m-1,3.8,3.48,1.25m-3.56,3.47,2.07,5.71m-3.4-.39-.15,5.32m-3.75-.53-2,4.28"/><path class="cls-2" d="M167.84,221.81c-10.54-1.51-17.48-8.17-13.88-17.08a12.52,12.52,0,0,1,5-6.11,53.17,53.17,0,0,0,5.65,2.53,47.48,47.48,0,0,0,10.07,2.47c-3.11.48-6.25.92-9.38,1.64-7,1.61-6.83,7.43,1,10.81,2.83,1.23,7.32,1.18,10.34,1.79,6.23,1.24,11.89,3.47,15.83,9.17,1.7,2.45.07,4.2-2.6,2.21-3.75-2.79-6.37-6.63-10.54-6.9-3.83-.24-7.69,0-11.48-.53Z"/><path class="cls-1" d="M163.3,202.09l2.9,2.92m-6.54-.31,2.46,1.66m-1.29-6-4.34.51m.28,3.26-3.08,2.25m6.34,2.89-2.51-.93m3.86,4.55-2.65-.11m6.28,2.66-2.54.78"/><line class="cls-1" x1="162.69" y1="218.27" x2="161.14" y2="219.4"/><line class="cls-1" x1="155.66" y1="210.07" x2="153.16" y2="210.02"/><path class="cls-1" d="M167.94,219.64l-3.49,1.41m-10.09-6.79,3.87.66m-.47,3,2.26-.85m11,4.81,3-1.6m2.92,1.88,2-1.51"/><line class="cls-1" x1="182.97" y1="223.49" x2="184.54" y2="222.75"/><path class="cls-1" d="M169.73,217.28l-3,.56m7.63,0L171.43,219m8.3-.29-3.21.85m7.73.66-2.82,1.13m7.63,2-2.07.48"/><path class="cls-2" d="M209.64,123.3a1.92,1.92,0,1,1,1.92-1.92,1.92,1.92,0,0,1-1.92,1.92Z"/><path class="cls-2" d="M142.3,123.3a1.92,1.92,0,1,0-1.92-1.92,1.92,1.92,0,0,0,1.92,1.92Z"/><path class="cls-2" d="M164.8,130.21l5.38,64a48.94,48.94,0,0,0,7.14,1c1.05.08,2.09.17,3.11.28l5.28-65.29.52-3.35-21.76.18.33,3.17Z"/><polygon class="cls-2" points="165.47 130.21 170.96 194.35 176.75 195.4 176.75 127.05 165.14 127.03 165.47 130.21 165.47 130.21"/><polygon class="cls-1" points="168.58 174.81 176.83 174.81 176.83 176.49 168.58 176.49 168.58 174.81 168.58 174.81"/><polygon class="cls-1" points="169.21 177.96 176.83 177.96 176.83 179.48 169.21 179.48 169.21 177.96 169.21 177.96"/><polygon class="cls-1" points="169.21 181.1 176.83 181.1 176.83 182.46 169.21 182.46 169.21 181.1 169.21 181.1"/><polygon class="cls-1" points="169.61 184.34 176.83 184.34 176.83 185.82 169.61 185.82 169.61 184.34 169.61 184.34"/><polygon class="cls-1" points="169.76 187.81 176.83 187.81 176.83 189.15 169.76 189.15 169.76 187.81 169.76 187.81"/><polygon class="cls-1" points="170.63 190.91 176.83 190.91 176.83 192.58 170.63 192.58 170.63 190.91 170.63 190.91"/><polygon class="cls-1" points="167.55 156.35 176.83 156.35 176.83 158.24 167.55 158.24 167.55 156.35 167.55 156.35"/><polygon class="cls-1" points="167.55 160.45 176.83 160.45 176.83 162.34 167.55 162.34 167.55 160.45 167.55 160.45"/><polygon class="cls-1" points="168.58 171.16 176.83 171.16 176.83 172.84 168.58 172.84 168.58 171.16 168.58 171.16"/><polygon class="cls-1" points="168.58 167.92 176.83 167.92 176.83 169.6 168.58 169.6 168.58 167.92 168.58 167.92"/><polygon class="cls-1" points="168.58 164.41 176.83 164.41 176.83 166.09 168.58 166.09 168.58 164.41 168.58 164.41"/><path class="cls-3" d="M215,81.27c6,3.11,17.36,1.59,28.3-1.36a21.24,21.24,0,0,0,2.28-8.65c-4.25,6.91-15.14,7.65-31.94,7.53-6.2-.05-10.75,2.39-15.1,5.23-7,4.56-6.11,10.74-1.71,10.74M211,84.19a64.6,64.6,0,0,0,25.84,2.74,16.63,16.63,0,0,0,3-6.18M208.18,88a52.35,52.35,0,0,0,22,3.24,14.08,14.08,0,0,0,3-4m-28.26,3.45c6,3.27,12.35,4.15,19.14,4.45a18.21,18.21,0,0,0,3-3.75m-25.88,2.38c4.46,2.57,8.85,3.56,13.82,4.36A17.64,17.64,0,0,0,218,95m-19.45,1a28.7,28.7,0,0,0,9.2,4.43,8.17,8.17,0,0,0,2.62-3.18m-22.05.85c3.77.76,6.46.61,9.82-1.17"/><path class="cls-3" d="M135.43,81.27c-6,3.11-17.37,1.59-28.31-1.36a21.07,21.07,0,0,1-2.27-8.65c4.25,6.91,15.14,7.65,31.93,7.53,6.21-.05,10.76,2.39,15.1,5.23,7,4.56,6.11,10.74,1.72,10.74M139.37,84.19a64.62,64.62,0,0,1-25.84,2.74,16.63,16.63,0,0,1-3-6.18M142.2,88a52.4,52.4,0,0,1-22,3.24,14.27,14.27,0,0,1-3-4m28.27,3.45c-6,3.27-12.36,4.15-19.15,4.45a18.89,18.89,0,0,1-3-3.75m25.89,2.38c-4.47,2.57-8.86,3.56-13.83,4.36A18,18,0,0,1,132.38,95m19.45,1a28.75,28.75,0,0,1-9.21,4.43A8.13,8.13,0,0,1,140,97.24m22,.85c-3.77.76-6.46.61-9.81-1.17"/><path class="cls-2" d="M114.27,76.9c13.62,1.54,18.25-1.46,24.7-1.39,9.18.1,15,4.53,19,10.56,9.48-15.09,24.77-15.28,34.37,0,4.08-6,9.86-10.46,19-10.56,6.44-.07,11.08,2.93,24.7,1.39-1,.35-8.38,1.46-9.41,1.81H215.87l-8.36,1-7,3.14-5.74,4.7c-.52,1.13-1,2.26-1.57,3.39.39,1.09.79,2.18,1.18,3.26l3.39.65c-.13.88-1.08,1.25-1.79,1.29-6.32.3-7.55.11-9.56-4.42-5.24-12-17.54-11.6-22.36,0-2,4.53-3.24,4.72-9.57,4.42-.7,0-1.65-.41-1.78-1.29l3.39-.65L157.22,91l-1.56-3.39-5.75-4.7-7-3.14-8.35-1H123.68c-1-.35-8.38-1.46-9.41-1.81Z"/><path class="cls-2" d="M161.22,112.11H137.09v-7.86A26.52,26.52,0,0,0,153.9,98l.88.12c2.25-.13,6.36-.73,7.34-1.75,1.38,1.88,2.66,3.92,5.37,3.91a6.51,6.51,0,0,0,1.91-.47c2.67-.86,3.35.2,1.87,1.86a17.75,17.75,0,0,1-6.59,4.35c-1.27,2-2.19,4-3.46,6.07Z"/><path class="cls-2" d="M189.16,112.11h24.12v-7.86A26.54,26.54,0,0,1,196.47,98l-.87.12c-2.25-.13-6.36-.73-7.35-1.75-1.37,1.88-2.65,3.92-5.36,3.91a6.51,6.51,0,0,1-1.91-.47c-2.67-.86-3.36.2-1.88,1.86a17.92,17.92,0,0,0,6.59,4.35c1.27,2,2.2,4,3.47,6.07Z"/><path class="cls-2" d="M161.85,106.26h24.64l1.95,3.55c4.07,6.11.93,9.84-4.05,12.49h-19c-4.35-2.14-7.28-5.49-5.38-11,.6-1.73,1.25-3.39,1.87-5.08Zm5.34,8.63c1.2,1.37,2.56,2.64,5.74,1.53a7.68,7.68,0,0,0,2.28-1.74,3.47,3.47,0,0,1,.94-.65h-9.29a6.36,6.36,0,0,0,.33.86Zm10-.86c.38.3.4,1-.06,1.79a7.8,7.8,0,0,1-4.26,3.61c4,1,8.56-.44,9.95-5.4Z"/><path class="cls-1" d="M164.8,130.21l5.38,64a48.94,48.94,0,0,0,7.14,1c1.05.08,2.09.17,3.11.28l5.28-65.29.52-3.35-21.76.18.33,3.17Z"/><polygon class="cls-2" points="166.34 143.25 183.26 143.25 187.21 147.15 183.26 151.05 166.34 151.05 163.81 147.15 166.34 143.25 166.34 143.25"/><polygon class="cls-2" points="187.21 147.15 183.26 151.05 166.34 151.05 163.81 147.15 187.21 147.15 187.21 147.15"/><polygon class="cls-2" points="164.46 122 184.86 122 189.62 126.71 184.86 131.41 164.46 131.41 161.4 126.71 164.46 122 164.46 122"/><polygon class="cls-2" points="189.62 126.71 184.86 131.41 164.46 131.41 161.4 126.71 189.62 126.71 189.62 126.71"/></g></svg>