<svg xmlns="http://www.w3.org/2000/svg" xmlns:xlink="http://www.w3.org/1999/xlink" viewBox="0 0 800 506.59"><defs><style>.cls-1{fill:none;}.cls-2{fill:url(#linear-gradient);}.cls-3{fill:url(#linear-gradient-2);}.cls-4{fill:url(#linear-gradient-3);}.cls-5{fill:url(#linear-gradient-4);}.cls-6{fill:url(#linear-gradient-5);}.cls-7{fill:url(#linear-gradient-6);}.cls-8{fill:url(#linear-gradient-7);}.cls-9{fill:#edf1ee;}.cls-10{clip-path:url(#clip-path);}.cls-11{fill:#0b8745;}.cls-12{fill:#f5fafd;}.cls-13{fill:#c2292b;}.cls-14{clip-path:url(#clip-path-2);}.cls-15{fill:#008e3f;}.cls-16{fill:#f7d503;}.cls-17{fill:#233362;}.cls-18{fill:#fff;}</style><linearGradient id="linear-gradient" x1="37.95" y1="369.9" x2="144.71" y2="369.9" gradientUnits="userSpaceOnUse"><stop offset="0" stop-color="#0c6a34"/><stop offset="1" stop-color="#038f40"/></linearGradient><linearGradient id="linear-gradient-2" x1="130.15" y1="369.9" x2="224.59" y2="369.9" xlink:href="#linear-gradient"/><linearGradient id="linear-gradient-3" x1="217.61" y1="369.9" x2="316.65" y2="369.9" xlink:href="#linear-gradient"/><linearGradient id="linear-gradient-4" x1="305.22" y1="369.9" x2="411.98" y2="369.9" xlink:href="#linear-gradient"/><linearGradient id="linear-gradient-5" x1="419.26" y1="369.9" x2="553.49" y2="369.9" xlink:href="#linear-gradient"/><linearGradient id="linear-gradient-6" x1="538.93" y1="369.9" x2="645.69" y2="369.9" xlink:href="#linear-gradient"/><linearGradient id="linear-gradient-7" x1="652.97" y1="369.9" x2="752.01" y2="369.9" xlink:href="#linear-gradient"/><clipPath id="clip-path"><path class="cls-1" d="M438.37,128.78l8.28-19s4.85-9.82,11.8-10.35S584.12,83.23,584.12,83.23l30.44-3.31s8.17-1.1,9.94-4.15c3.58-6.17,5.83-12.59,12.83-13.35l86.34-10.14s8.24-1.42,3.93,3.93c-2.42,3-21.84,31.37-21.84,31.37l-33.23,48s-4.76,5.8-8.7,5.8L625,146.17l-37.16,4.14s-8,.83-10.87,6.11-5.38,9.11-5.38,9.11-3.11,6.21-8.08,6.72-39.33,5.08-39.33,5.08l-36.86,3.72-32.09,4.35s-13.46,1-18.32,8.7c-4,6.28-9.52,19.25-9.52,19.25L410.73,250.1l-12.42,28.36s-3.42,9.11-7.56,0-7-15.21-7-15.21-2.17-4.45.73-10.67,16.45-36.23,16.45-36.23l16.57-38.71Z"/></clipPath><clipPath id="clip-path-2"><path class="cls-1" d="M66.39,63l26.5,37.82,19.29,27.84,6.11,8.49s4,4.66,10.14,4.87,23.5,2.07,23.5,2.07l35.3,4.45,10.25,1.24s9.83,1.14,12.84,4.76S219,167.39,219,167.39a18.19,18.19,0,0,0,10.56,5.49c4.25.62,27.85,3.1,27.85,3.1l64.08,7.76,11.59,1.56s15.32,1.76,20.81,10.66a128.05,128.05,0,0,1,8.69,16.77l7,15.84s2.14,7.27,4.66,0c.93-2.69,7.14-16.46,7.14-16.46a11.37,11.37,0,0,0,.52-10.77l-8.07-19.15-15.95-37-16.76-38.79s-1.35-5-12-7.21-41-5.9-41-5.9l-61.28-8.18-53-5.9s-6.63-.21-9-3.93S160.11,63.8,153.9,63L74.5,52.79,63.32,51.65s-4.76-.93-3.11,1.76S66.39,63,66.39,63Z"/></clipPath></defs><g id="VECTORS"><g id="_3" data-name="3"><g id="FONT"><path class="cls-2" d="M53.39,419.42,38,320.38H65.56l8.76,71.42,40.1-71.42h30.29l-59.25,99Z"/><path class="cls-3" d="M130.15,419.42l21.83-99h72.61l-4.75,21.53H172.77l-3.57,16.48h45.89l-4.75,21.68H164.45l-4,17.82h47.07l-4.75,21.53Z"/><path class="cls-4" d="M273.89,419.42l-9.21-33.56H250.57l-7.42,33.56H217.61l21.83-99h45.14c17.08,0,32.07,11.13,32.07,28.95a35.91,35.91,0,0,1-26.43,35l11.88,35.05Zm1.18-55.24c9.21,0,15-4.75,15-12.33,0-5.94-4.75-9.94-10.84-9.94h-19l-4.91,22.27Z"/><path class="cls-5" d="M385.55,419.42l-1.93-15h-41l-8.47,15H305.22l59.1-99h32.07l15.59,99Zm-8.76-77.51-22.72,41h27.62Z"/><path class="cls-6" d="M506.12,419.42l14.55-65.93L481,419.42H469.74l-10.39-65.93-14.56,65.93H419.26l21.83-99h34.59l8.46,55.23,33-55.23h36.38l-21.83,99Z"/><path class="cls-7" d="M619.27,419.42l-1.93-15h-41l-8.46,15h-29l59.1-99h32.08l15.58,99Zm-8.77-77.51-22.72,41H615.4Z"/><path class="cls-8" d="M709.24,419.42,700,385.86H685.93l-7.42,33.56H653l21.83-99h45.14c17.07,0,32.07,11.13,32.07,28.95a35.91,35.91,0,0,1-26.43,35l11.88,35.05Zm1.19-55.24c9.21,0,15-4.75,15-12.33,0-5.94-4.75-9.94-10.84-9.94h-19l-4.91,22.27Z"/></g><g id="VERAMAR"><path class="cls-9" d="M750.85,39.41l-1.23,1.94c-4.87,7.37-14.09,19.59-14.09,19.59l-56.18,81.85a18.07,18.07,0,0,1-12.68,7.44l-72.76,8.3s-7.3,1.38-9.51,5.66c0,0-8.28,16.42-17.81,17s-103.39,12-103.39,12-16.4.28-22.49,13.26L403.44,290.9s-3.72,8.31-8.09,8.35-6.6-3.95-9.16-9c-2.09-4.15-9.55-21-13.55-30.08-.66-1.49-1.24-2.79-1.66-3.76v0l22.34-46.89L395,206l16.48-37.56,29.93-69.68s5.37-13,13.89-13.74L601.64,66s12.29-.48,15.06-6.7a22.18,22.18,0,0,1,16.82-12.42c7.6-1.11,112.65-12.7,112.65-12.7S755.13,32.5,750.85,39.41Z"/><path class="cls-9" d="M395,206l-1.66,3.51L371,256.41c-.59-1.33-.92-2.1-.92-2.1l-13.83-32.52-6.87-15.43s-4.3-10.49-24.17-12.79c-10.51-1.22-92.61-11-92.61-11s-14.91-.15-20.85-9.39c-2.12-3.29-7.44-13.12-17.25-14.35s-75.13-8.45-75.13-8.45-5.15-.27-8.15-6.06c-4.41-8.61-63.78-92.43-71.12-102.75-.48-.68-.73-1-.73-1S33.82,33.11,44.73,34,97.3,39.82,97.3,39.82l60.89,7s9.25,1.38,14.06,8.7c6,9,7.48,9.35,15.59,10.06,8.34.74,139,17.13,139,17.13s13.94,1.92,17.66,9.25,26.64,59.62,26.64,59.62L383.42,180Z"/><g class="cls-10"><rect class="cls-11" x="296.78" y="-1.81" width="176.47" height="350.76"/><rect class="cls-12" x="473.26" y="-1.81" width="176.47" height="350.76"/><rect class="cls-13" x="649.73" y="-1.81" width="176.47" height="350.76"/></g><g class="cls-14"><rect class="cls-15" x="108.43" y="-103.7" width="243.81" height="462.08" transform="translate(83.43 345.72) rotate(-85.01)"/><polygon class="cls-16" points="88.9 116.22 238.77 36.94 373.32 140.84 223.01 220.86 88.9 116.22"/><ellipse class="cls-17" cx="231.24" cy="128.38" rx="61.07" ry="60.33" transform="translate(83.23 347.58) rotate(-85.01)"/><path class="cls-18" d="M227.77,104c40.34,12.35,62.09,38.77,62.09,38.77a63,63,0,0,1-3.06,9.44c-24.21-27.6-56.62-37.31-56.62-37.31a146.14,146.14,0,0,0-55.77-6.9,93.41,93.41,0,0,1,4-9S198.81,96.9,227.77,104Z"/><polygon class="cls-18" points="183.29 110.66 183.71 112.51 185.59 112.67 183.97 113.66 184.4 115.51 182.98 114.26 181.37 115.24 182.1 113.49 180.68 112.25 182.56 112.41 183.29 110.66"/><polygon class="cls-18" points="208.19 126.74 208.56 128.35 210.19 128.49 208.78 129.35 209.15 130.96 207.92 129.88 206.51 130.73 207.15 129.2 205.92 128.12 207.55 128.26 208.19 126.74"/><polygon class="cls-18" points="192.55 134.6 192.78 135.58 193.77 135.67 192.92 136.19 193.14 137.17 192.39 136.51 191.53 137.03 191.92 136.1 191.17 135.44 192.16 135.53 192.55 134.6"/><polygon class="cls-18" points="186.39 136.56 186.85 138.62 188.94 138.8 187.15 139.89 187.61 141.96 186.04 140.57 184.24 141.66 185.06 139.71 183.48 138.32 185.57 138.51 186.39 136.56"/><polygon class="cls-18" points="178.39 142.06 178.74 143.58 180.28 143.71 178.95 144.52 179.3 146.04 178.13 145.02 176.81 145.82 177.41 144.38 176.25 143.36 177.79 143.49 178.39 142.06"/><polygon class="cls-18" points="198.31 144.38 198.66 145.9 200.2 146.03 198.87 146.84 199.22 148.36 198.05 147.34 196.73 148.15 197.33 146.71 196.17 145.68 197.71 145.82 198.31 144.38"/><polygon class="cls-18" points="195.95 150.32 196.3 151.85 197.84 151.98 196.51 152.79 196.86 154.31 195.69 153.28 194.37 154.09 194.98 152.65 193.81 151.63 195.35 151.76 195.95 150.32"/><polygon class="cls-18" points="204.38 156.33 204.77 158.03 206.49 158.18 205.01 159.09 205.4 160.79 204.09 159.64 202.61 160.55 203.29 158.94 201.99 157.79 203.71 157.94 204.38 156.33"/><polygon class="cls-18" points="228.85 153.53 229.24 155.24 230.96 155.38 229.48 156.29 229.87 157.99 228.56 156.84 227.08 157.75 227.76 156.14 226.46 154.99 228.18 155.14 228.85 153.53"/><polygon class="cls-18" points="236.96 142.18 237.32 143.76 238.91 143.9 237.54 144.73 237.9 146.31 236.69 145.25 235.32 146.08 235.95 144.59 234.74 143.53 236.34 143.67 236.96 142.18"/><polygon class="cls-18" points="230.38 136.02 230.74 137.6 232.33 137.74 230.96 138.57 231.32 140.15 230.12 139.09 228.74 139.93 229.37 138.43 228.16 137.37 229.76 137.51 230.38 136.02"/><polygon class="cls-18" points="223.83 141.07 224.14 142.47 225.56 142.59 224.34 143.33 224.66 144.73 223.59 143.79 222.38 144.53 222.93 143.21 221.86 142.27 223.27 142.39 223.83 141.07"/><polygon class="cls-18" points="226.42 146.21 226.65 147.25 227.7 147.34 226.8 147.89 227.03 148.92 226.24 148.23 225.34 148.78 225.75 147.79 224.96 147.1 226 147.19 226.42 146.21"/><polygon class="cls-18" points="247.83 125.52 248.06 126.55 249.11 126.65 248.21 127.19 248.44 128.23 247.65 127.53 246.75 128.08 247.16 127.1 246.37 126.41 247.41 126.5 247.83 125.52"/><polygon class="cls-18" points="251.64 108.45 252.07 110.37 254.01 110.54 252.34 111.56 252.78 113.48 251.31 112.19 249.64 113.2 250.4 111.39 248.93 110.1 250.87 110.27 251.64 108.45"/><polygon class="cls-18" points="271.51 150.9 271.95 152.81 273.89 152.98 272.22 154 272.66 155.92 271.19 154.63 269.52 155.65 270.28 153.83 268.81 152.54 270.75 152.71 271.51 150.9"/><polygon class="cls-18" points="269.32 161.31 269.69 162.91 271.31 163.05 269.92 163.9 270.28 165.51 269.05 164.43 267.66 165.28 268.3 163.76 267.07 162.68 268.69 162.82 269.32 161.31"/><polygon class="cls-18" points="273.46 156.97 273.83 158.58 275.45 158.72 274.05 159.57 274.42 161.17 273.19 160.09 271.79 160.94 272.43 159.43 271.2 158.35 272.82 158.49 273.46 156.97"/><polygon class="cls-18" points="279.73 152.91 280.01 154.13 281.25 154.24 280.18 154.89 280.46 156.12 279.52 155.29 278.46 155.94 278.95 154.78 278.01 153.96 279.25 154.07 279.73 152.91"/><polygon class="cls-18" points="264.24 164.59 264.52 165.81 265.76 165.92 264.69 166.57 264.97 167.79 264.03 166.97 262.97 167.62 263.45 166.46 262.52 165.64 263.75 165.74 264.24 164.59"/><polygon class="cls-18" points="257.9 168.57 258.22 169.98 259.64 170.1 258.41 170.85 258.73 172.25 257.66 171.31 256.44 172.06 256.99 170.72 255.92 169.78 257.34 169.9 257.9 168.57"/><polygon class="cls-18" points="257.99 162.9 258.26 164.07 259.44 164.17 258.42 164.79 258.69 165.95 257.8 165.17 256.78 165.79 257.24 164.69 256.35 163.9 257.53 164 257.99 162.9"/><polygon class="cls-18" points="251.3 164.5 251.56 165.67 252.74 165.77 251.73 166.39 251.99 167.56 251.1 166.77 250.09 167.39 250.55 166.29 249.66 165.5 250.83 165.6 251.3 164.5"/><polygon class="cls-18" points="241.52 162.03 241.78 163.2 242.96 163.3 241.95 163.92 242.21 165.08 241.32 164.3 240.31 164.91 240.77 163.81 239.88 163.03 241.06 163.13 241.52 162.03"/><polygon class="cls-18" points="257.28 175.23 257.55 176.4 258.73 176.5 257.71 177.12 257.98 178.28 257.09 177.5 256.07 178.12 256.53 177.02 255.64 176.23 256.82 176.34 257.28 175.23"/><polygon class="cls-18" points="245.74 169.13 246.07 170.54 247.5 170.67 246.27 171.42 246.59 172.84 245.5 171.88 244.27 172.64 244.83 171.3 243.75 170.34 245.18 170.47 245.74 169.13"/><polygon class="cls-18" points="227.15 175.19 227.3 175.85 227.96 175.91 227.39 176.26 227.54 176.92 227.03 176.48 226.46 176.83 226.72 176.2 226.22 175.76 226.88 175.81 227.15 175.19"/><path class="cls-15" d="M183.47,102.91a2.38,2.38,0,0,1-2.37,2.83,2.74,2.74,0,0,1-3-2.41,2.38,2.38,0,0,1,2.37-2.88A2.67,2.67,0,0,1,183.47,102.91Zm-4.52.34a2.1,2.1,0,0,0,2.13,2c1.17-.06,1.72-1.06,1.59-2.22a2.07,2.07,0,0,0-2.13-2A1.77,1.77,0,0,0,179,103.25Z"/><path class="cls-15" d="M186.86,100.38a8.91,8.91,0,0,1,1.47-.11,2.78,2.78,0,0,1,1.74.43,1.28,1.28,0,0,1-.53,2.28v0a1.42,1.42,0,0,1,.91,1,8.16,8.16,0,0,0,.5,1.41h-.76a6.54,6.54,0,0,1-.44-1.23,1.15,1.15,0,0,0-1.22-1h-.71c.05.74.1,1.48.16,2.22h-.74C187.11,103.76,187,102.07,186.86,100.38Zm.93,2.33h.77c.8,0,1.29-.38,1.26-1s-.6-1-1.41-1a3.57,3.57,0,0,0-.75.06C187.7,101.47,187.74,102.09,187.79,102.71Z"/><path class="cls-15" d="M194.25,100.51a10.81,10.81,0,0,1,1.63,0,3.78,3.78,0,0,1,2.39.8,2.3,2.3,0,0,1,.78,1.9,2.44,2.44,0,0,1-.88,1.92,3.7,3.7,0,0,1-2.52.57,13.31,13.31,0,0,1-1.33-.13C194.3,103.87,194.27,102.19,194.25,100.51Zm.8,4.57a6,6,0,0,0,.74.08c1.57.09,2.44-.63,2.48-2,0-1.21-.74-2-2.35-2.13a4.09,4.09,0,0,0-.9,0Z"/><path class="cls-15" d="M205.56,104.17l-2.24-.28-.12,1.84c.82.09,1.64.19,2.45.3l0,.55c-1.06-.14-2.11-.27-3.17-.38l.3-5.1c1.06.12,2.12.24,3.18.39,0,.18,0,.36,0,.55-.8-.11-1.6-.21-2.41-.3,0,.53-.07,1.07-.1,1.61l2.25.27C205.59,103.81,205.57,104,205.56,104.17Z"/><path class="cls-15" d="M214.1,105.74c.08-.71.16-1.56.27-2.18h0c-.29.55-.63,1.13-1,1.77s-.91,1.5-1.36,2.25l-.55-.1c-.19-.86-.38-1.71-.58-2.56s-.33-1.45-.42-2.08h0c-.1.62-.25,1.46-.39,2.21s-.29,1.43-.42,2.14l-.69-.11c.32-1.67.66-3.33,1-5l1,.16q.34,1.31.66,2.61a16.22,16.22,0,0,1,.33,1.8h0a13.94,13.94,0,0,1,.84-1.59c.46-.75.93-1.49,1.4-2.23l1,.19c-.16,1.7-.32,3.39-.49,5.09l-.7-.15Z"/><path class="cls-15" d="M225.77,108.47c-.72-.22-1.44-.42-2.16-.62l-.45,1.77,2.38.68-.15.53c-1-.3-2-.59-3.07-.87l1.2-4.93c1,.28,2.06.57,3.08.88,0,.17-.09.35-.14.52-.78-.22-1.55-.45-2.33-.66l-.39,1.55,2.17.62C225.87,108.12,225.82,108.29,225.77,108.47Z"/><path class="cls-15" d="M234.43,108.54a10,10,0,0,1,1.41.42,2.67,2.67,0,0,1,1.4,1,1.29,1.29,0,0,1,.1,1.18,1.37,1.37,0,0,1-.81.85,2.65,2.65,0,0,1-1.84-.11,3.58,3.58,0,0,1-.55-.25c-.22.63-.45,1.27-.68,1.91l-.69-.25C233.32,111.69,233.88,110.12,234.43,108.54Zm-.11,2.57a3.12,3.12,0,0,0,.57.26c.84.32,1.49.16,1.74-.49s-.17-1.13-1-1.43a4.24,4.24,0,0,0-.69-.2Z"/><path class="cls-15" d="M241.22,111.22a8.68,8.68,0,0,1,1.39.49,2.64,2.64,0,0,1,1.4,1.07,1.14,1.14,0,0,1,0,1.06,1.38,1.38,0,0,1-1.53.73v0a1.28,1.28,0,0,1,.35,1.28,8.5,8.5,0,0,0-.18,1.44L242,117a6.72,6.72,0,0,1,.15-1.26,1,1,0,0,0-.65-1.36l-.65-.28-.86,2-.68-.29Q240.26,113.53,241.22,111.22Zm-.2,2.42.7.31c.74.32,1.35.18,1.59-.35s-.11-1.08-.85-1.41a4.11,4.11,0,0,0-.71-.25C241.5,112.51,241.26,113.08,241,113.64Z"/><path class="cls-15" d="M251.29,118.71a2.58,2.58,0,0,1-3.63,1.11,2.46,2.46,0,0,1-1.14-3.44,2.57,2.57,0,0,1,3.65-1.15A2.41,2.41,0,0,1,251.29,118.71Zm-4-2a1.88,1.88,0,0,0,.7,2.65,1.94,1.94,0,0,0,2.63-1,1.87,1.87,0,0,0-.69-2.68A1.91,1.91,0,0,0,247.25,116.72Z"/><path class="cls-15" d="M256.93,124.66a6.54,6.54,0,0,1-1.65-.67,3.19,3.19,0,0,1-1.48-1.64,2.43,2.43,0,0,1,.26-2c.77-1.3,2.4-1.66,4.11-.64a4,4,0,0,1,1.14,1l-.44.35a3.46,3.46,0,0,0-1-.85c-1.24-.74-2.45-.55-3.1.54a2,2,0,0,0,.84,2.87,3.08,3.08,0,0,0,.92.39l.81-1.28-1-.6c.1-.15.19-.3.28-.45l1.64,1Z"/><path class="cls-15" d="M262.75,122.69a8.85,8.85,0,0,1,1.29.73,2.61,2.61,0,0,1,1.18,1.29,1.15,1.15,0,0,1-.19,1,1.44,1.44,0,0,1-1.68.42v0a1.24,1.24,0,0,1,.09,1.31,8.38,8.38,0,0,0-.47,1.37l-.62-.43a6.19,6.19,0,0,1,.4-1.2,1,1,0,0,0-.38-1.44l-.59-.39c-.42.6-.84,1.2-1.27,1.79l-.61-.4Zm-.69,2.31.64.43c.66.44,1.31.42,1.66-.05s.1-1.07-.57-1.52a3,3,0,0,0-.67-.37Z"/><path class="cls-15" d="M269.6,130.77c-.6-.46-1.2-.92-1.81-1.37-.38.48-.76,1-1.15,1.43l2,1.5-.35.42c-.85-.65-1.7-1.29-2.56-1.92l3.16-4c.86.64,1.72,1.28,2.57,1.93l-.36.43c-.64-.5-1.29-1-1.94-1.47l-1,1.25,1.82,1.37Z"/><path class="cls-15" d="M271.46,134.26a2.91,2.91,0,0,0,.8,1.1c.58.48,1.16.51,1.52.13s.27-.75-.15-1.45-.71-1.52-.23-2,1.52-.55,2.41.19a2.86,2.86,0,0,1,.84,1l-.53.25a2.59,2.59,0,0,0-.7-.91c-.62-.52-1.14-.4-1.37-.14s-.2.75.23,1.47c.54.88.63,1.51.11,2.06s-1.5.63-2.53-.23a3,3,0,0,1-.91-1.16Z"/><path class="cls-15" d="M276.6,138.67a2.78,2.78,0,0,0,.74,1.14c.56.51,1.14.57,1.51.21s.32-.73-.06-1.45-.63-1.55-.11-2.06,1.55-.47,2.41.33a3,3,0,0,1,.78,1.08l-.55.22a2.41,2.41,0,0,0-.65-.94c-.59-.55-1.12-.47-1.37-.22s-.24.74.16,1.48c.48.91.54,1.54,0,2.06s-1.55.55-2.54-.37a3.28,3.28,0,0,1-.85-1.21Z"/><path class="cls-15" d="M286.41,145.87a2.77,2.77,0,0,1-3.93-.25,2.34,2.34,0,0,1,.14-3.57,2.77,2.77,0,0,1,4,.21A2.31,2.31,0,0,1,286.41,145.87Zm-3.21-3.25a1.8,1.8,0,0,0-.28,2.69,2.09,2.09,0,0,0,2.92,0,1.78,1.78,0,0,0,.31-2.71A2.05,2.05,0,0,0,283.2,142.62Z"/></g></g><path class="cls-11" d="M186.48,463.79a8.8,8.8,0,0,1-3.84-2.91,8,8,0,0,1-1.52-4.65h7.17a3.52,3.52,0,0,0,1.06,2.35,3.49,3.49,0,0,0,2.37.8,3.68,3.68,0,0,0,2.36-.69,2.29,2.29,0,0,0,.87-1.91,2.26,2.26,0,0,0-.69-1.69,5.54,5.54,0,0,0-1.7-1.1,27.53,27.53,0,0,0-2.85-1,30.94,30.94,0,0,1-4.37-1.65,8.18,8.18,0,0,1-2.92-2.44,6.84,6.84,0,0,1-1.22-4.22,7.23,7.23,0,0,1,2.8-6,11.46,11.46,0,0,1,7.28-2.19,11.63,11.63,0,0,1,7.37,2.19,7.82,7.82,0,0,1,3,6.08h-7.28a2.84,2.84,0,0,0-1-2.1,3.42,3.42,0,0,0-2.32-.77,2.86,2.86,0,0,0-2,.65,2.5,2.5,0,0,0,.51,4,20.68,20.68,0,0,0,3.94,1.61,36.66,36.66,0,0,1,4.35,1.73,8.33,8.33,0,0,1,2.9,2.41,6.44,6.44,0,0,1,1.22,4,7.85,7.85,0,0,1-1.21,4.29,8.46,8.46,0,0,1-3.48,3.08,11.93,11.93,0,0,1-5.39,1.14A14.14,14.14,0,0,1,186.48,463.79Z"/><path class="cls-11" d="M212.86,442.25v5.59h9V453h-9v6.07h10.2v5.39H206.13V436.86h16.93v5.39Z"/><path class="cls-11" d="M241.53,464.5l-5.75-10.43h-1.61V464.5h-6.73V436.86h11.3a12.46,12.46,0,0,1,5.57,1.14,7.87,7.87,0,0,1,3.45,3.13,8.75,8.75,0,0,1,1.14,4.43,8.19,8.19,0,0,1-1.56,4.92,8.31,8.31,0,0,1-4.59,3.07l6.38,10.95Zm-7.36-15.2h4.17a3.84,3.84,0,0,0,2.78-.9,3.42,3.42,0,0,0,.93-2.56,3.33,3.33,0,0,0-.93-2.49,3.84,3.84,0,0,0-2.78-.9h-4.17Z"/><path class="cls-11" d="M279.06,436.86l-9.8,27.64h-8.43L251,436.86h7.17L265,457.73l6.9-20.87Z"/><path class="cls-11" d="M288.59,436.86V464.5h-6.73V436.86Z"/><path class="cls-11" d="M309.6,457.69a6,6,0,0,0,2.35-2.64h7.4a12.67,12.67,0,0,1-4,6.48,13.13,13.13,0,0,1-7,3.05v1.54a5.92,5.92,0,0,1,3.59,1.12,4.43,4.43,0,0,1-.08,6.77,6.42,6.42,0,0,1-3.86,1.16h-6.07v-3.7h5.16a2.41,2.41,0,0,0,1.18-.23.84.84,0,0,0,.4-.79.79.79,0,0,0-.4-.77,2.55,2.55,0,0,0-1.18-.22h-2.79v-4.88a13.56,13.56,0,0,1-6.27-2.26,12.63,12.63,0,0,1-4.21-4.91,15,15,0,0,1-1.5-6.77,14.73,14.73,0,0,1,1.78-7.3,12.66,12.66,0,0,1,4.94-5,14.39,14.39,0,0,1,7.19-1.79,13.74,13.74,0,0,1,8.42,2.6,12.49,12.49,0,0,1,4.69,7.09H312a6.06,6.06,0,0,0-2.35-2.64,6.62,6.62,0,0,0-3.44-.91,6.43,6.43,0,0,0-5,2.17,9.65,9.65,0,0,0,0,11.58,6.43,6.43,0,0,0,5,2.17A6.62,6.62,0,0,0,309.6,457.69Z"/><path class="cls-11" d="M329.41,463a13.62,13.62,0,0,1-5.16-5.06,14.89,14.89,0,0,1,0-14.59,13.6,13.6,0,0,1,5.16-5.05,15,15,0,0,1,14.3,0,13.35,13.35,0,0,1,5.12,5.05,15.09,15.09,0,0,1,0,14.59,13.52,13.52,0,0,1-5.12,5.06,15,15,0,0,1-14.28,0Zm12.44-6.54a9.56,9.56,0,0,0,0-11.68,6.82,6.82,0,0,0-5.29-2.18,6.92,6.92,0,0,0-5.34,2.16,9.62,9.62,0,0,0,0,11.72,6.86,6.86,0,0,0,5.34,2.18A6.77,6.77,0,0,0,341.85,456.43Z"/><path class="cls-11" d="M359,463.79a8.68,8.68,0,0,1-3.84-2.91,8,8,0,0,1-1.52-4.65h7.17a3.48,3.48,0,0,0,1.06,2.35,3.44,3.44,0,0,0,2.36.8,3.71,3.71,0,0,0,2.37-.69,2.31,2.31,0,0,0,.86-1.91,2.26,2.26,0,0,0-.69-1.69,5.49,5.49,0,0,0-1.69-1.1,27,27,0,0,0-2.86-1,31.42,31.42,0,0,1-4.37-1.65,8.07,8.07,0,0,1-2.91-2.44,6.78,6.78,0,0,1-1.22-4.22,7.25,7.25,0,0,1,2.79-6,13.34,13.34,0,0,1,14.65,0,7.83,7.83,0,0,1,3,6.08h-7.29a2.84,2.84,0,0,0-1-2.1,3.45,3.45,0,0,0-2.33-.77,2.87,2.87,0,0,0-2,.65,2.51,2.51,0,0,0,.52,4,20.81,20.81,0,0,0,3.93,1.61,36.21,36.21,0,0,1,4.36,1.73,8.3,8.3,0,0,1,2.89,2.41,6.44,6.44,0,0,1,1.22,4,7.93,7.93,0,0,1-1.2,4.29,8.43,8.43,0,0,1-3.49,3.08,11.93,11.93,0,0,1-5.39,1.14A14.13,14.13,0,0,1,359,463.79Z"/><path class="cls-11" d="M387.63,443.34a12.75,12.75,0,0,1,4.95-5,14.38,14.38,0,0,1,7.18-1.79,13.77,13.77,0,0,1,8.43,2.6,12.49,12.49,0,0,1,4.69,7.09h-7.41a6,6,0,0,0-2.34-2.64,6.62,6.62,0,0,0-3.44-.91,6.46,6.46,0,0,0-5.05,2.17,9.65,9.65,0,0,0,0,11.58,6.46,6.46,0,0,0,5.05,2.17,6.62,6.62,0,0,0,3.44-.91,5.93,5.93,0,0,0,2.34-2.64h7.41a12.41,12.41,0,0,1-4.69,7.07,13.82,13.82,0,0,1-8.43,2.58,14.38,14.38,0,0,1-7.18-1.79,12.81,12.81,0,0,1-4.95-5,15.92,15.92,0,0,1,0-14.59Z"/><path class="cls-11" d="M422.94,463a13.55,13.55,0,0,1-5.16-5.06,14.89,14.89,0,0,1,0-14.59,13.53,13.53,0,0,1,5.16-5.05,15,15,0,0,1,14.29,0,13.22,13.22,0,0,1,5.12,5.05,15.09,15.09,0,0,1,0,14.59,13.45,13.45,0,0,1-5.12,5.06,15,15,0,0,1-14.27,0Zm12.44-6.54a9.56,9.56,0,0,0,0-11.68,6.82,6.82,0,0,0-5.29-2.18,6.9,6.9,0,0,0-5.34,2.16,9.62,9.62,0,0,0,0,11.72,6.85,6.85,0,0,0,5.34,2.18A6.77,6.77,0,0,0,435.38,456.43Z"/><path class="cls-11" d="M472.7,464.5H466L454.7,447.45V464.5H448V436.86h6.73L466,454V436.86h6.74Z"/><path class="cls-11" d="M497.47,436.86v5.39h-7.33V464.5h-6.73V442.25h-7.33v-5.39Z"/><path class="cls-11" d="M518.06,459.62H507.74l-1.65,4.88h-7l10-27.64h7.8l10,27.64h-7.12Zm-.55-28.32-9.49,4v-4.65l9.49-4.56Zm-1.18,23.12L512.9,444.3l-3.38,10.12Z"/><path class="cls-11" d="M550.47,452.71a7.24,7.24,0,0,1-1,9.76,10.2,10.2,0,0,1-6.76,2H529.88V436.86h12.44a10.2,10.2,0,0,1,6.6,1.93,7,7,0,0,1,1.1,9.29,6.52,6.52,0,0,1-3.41,2.24A6.47,6.47,0,0,1,550.47,452.71ZM536.61,448H541a3.88,3.88,0,0,0,2.54-.73,2.61,2.61,0,0,0,.89-2.14,2.68,2.68,0,0,0-.89-2.17,3.83,3.83,0,0,0-2.54-.75h-4.41Zm7.58,10.26a2.72,2.72,0,0,0,.93-2.23,2.85,2.85,0,0,0-1-2.28,4,4,0,0,0-2.66-.83h-4.88v6.11h5A4,4,0,0,0,544.19,458.3Z"/><path class="cls-11" d="M562.56,442.25v5.59h9V453h-9v6.07h10.2v5.39H555.83V436.86h16.93v5.39Z"/><path class="cls-11" d="M583.87,436.86V464.5h-6.74V436.86Z"/><path class="cls-11" d="M593.32,463.79a8.8,8.8,0,0,1-3.84-2.91,8,8,0,0,1-1.52-4.65h7.17a3.18,3.18,0,0,0,3.43,3.15,3.7,3.7,0,0,0,2.36-.69,2.5,2.5,0,0,0,.18-3.6,5.54,5.54,0,0,0-1.7-1.1,27.53,27.53,0,0,0-2.85-1,30.47,30.47,0,0,1-4.37-1.65,8.18,8.18,0,0,1-2.92-2.44,6.84,6.84,0,0,1-1.22-4.22,7.23,7.23,0,0,1,2.8-6,11.46,11.46,0,0,1,7.28-2.19,11.63,11.63,0,0,1,7.37,2.19,7.82,7.82,0,0,1,3,6.08h-7.29a2.84,2.84,0,0,0-1-2.1,3.44,3.44,0,0,0-2.32-.77,2.86,2.86,0,0,0-2,.65,2.5,2.5,0,0,0,.51,4,20.68,20.68,0,0,0,3.94,1.61,36.66,36.66,0,0,1,4.35,1.73,8.3,8.3,0,0,1,2.89,2.41,6.38,6.38,0,0,1,1.22,4,7.93,7.93,0,0,1-1.2,4.29,8.46,8.46,0,0,1-3.48,3.08,12,12,0,0,1-5.4,1.14A14.13,14.13,0,0,1,593.32,463.79Z"/></g></g></svg>